<?xml version="1.0" encoding="UTF-8"?>
<svg id="Livello_1" data-name="Livello 1" xmlns="http://www.w3.org/2000/svg" xmlns:xlink="http://www.w3.org/1999/xlink" viewBox="0 0 220 40">
  <defs>
    <style>
      .cls-1 {
        fill: url(#linear-gradient);
      }

      .cls-1, .cls-2 {
        stroke-width: 0px;
      }

      .cls-2 {
        fill: #231f20;
      }
    </style>
    <linearGradient id="linear-gradient" x1="22.83" y1="1.18" x2="22.83" y2="38.82" gradientUnits="userSpaceOnUse">
      <stop offset="0" stop-color="#922782"/>
      <stop offset="1" stop-color="#600655"/>
    </linearGradient>
  </defs>
  <g>
    <path class="cls-2" d="M70.2,19.08c-.9,0-1.97.03-2.87.06.08-1.05.2-2.57.2-5.54,0-3.67-.11-4.37-.2-5.41.9.03,1.97.06,2.87.06,1.02,0,1.81-.06,4.11-.06,3.13,0,5.07.76,5.07,2.78,0,1.15-.58,1.88-2.13,2.19,1.97.15,3.14,1.02,3.14,2.76,0,2.69-2.76,3.22-5.56,3.22-2.2,0-3.73-.06-4.65-.06ZM69.85,9.26l-.03,3.54h4.49c1.79,0,2.58-.56,2.58-1.82,0-1.18-.77-1.72-2.58-1.72h-4.46ZM69.82,13.76l.03,4.33h5c1.65,0,2.96-.52,2.96-2.17,0-1.82-1.55-2.16-3.49-2.16h-4.49Z"/>
    <path class="cls-2" d="M86.93,19.08c-.44,0-.91.03-1.35.06.08-1.05.2-2.57.2-5.54,0-3.67-.11-4.37-.2-5.41.71.03,1.55.06,2.25.06.64,0,3.45-.06,4.45-.06,4.25,0,6.03.79,6.03,3.29,0,1.87-1,2.79-3.26,3.13.44.33.73.74,1,1.18.88,1.43,1.4,3.07,2.92,3.07.58,0,1.08-.11,1.61-.42l.09.18c-.62.41-1.47.73-2.7.73-5.03,0-3.39-4.57-6.54-4.57h-3.31c.03,2.2.12,3.43.2,4.36-.44-.03-.93-.06-1.37-.06ZM88.17,9.24c-.05.77-.09,1.75-.09,4.49h4.19c2.91,0,3.64-.88,3.64-2.25s-.73-2.25-3.64-2.25h-4.1Z"/>
    <path class="cls-2" d="M105.98,19.08c-.46,0-.93.03-1.37.06.08-1.05.21-2.57.21-5.54,0-3.67-.11-4.37-.21-5.41.44.03.91.06,1.37.06s.91-.03,1.35-.06c-.09,1.03-.2,1.73-.2,5.41,0,2.98.12,4.49.2,5.54-.44-.03-.91-.06-1.35-.06Z"/>
    <path class="cls-2" d="M121.45,7.84c4.66,0,8.53,2.08,8.53,5.66s-3.54,5.98-8.84,5.98c-4.62,0-8.52-2.1-8.52-5.69s3.54-5.95,8.82-5.95ZM115.41,13.64c0,3.1,2.44,4.95,5.92,4.95,3.25,0,5.88-1.64,5.88-4.89s-2.47-4.96-5.94-4.96c-3.23,0-5.86,1.64-5.86,4.9Z"/>
    <path class="cls-2" d="M146.78,8.39l.3,1.38-.17.06c-.3-.46-1.26-.59-2.1-.59h-6.95c-.05.71-.09,2.02-.09,4.07h4.36c.68,0,2.38-.05,2.95-.18-.03.27-.05.49-.05.71s.02.43.05.7c-.56-.15-2.26-.18-2.95-.18h-4.36c0,2.69.14,3.81.21,4.78-.44-.03-.93-.06-1.37-.06s-.91.05-1.35.06c.08-1.05.2-2.57.2-5.54,0-3.67-.11-4.37-.2-5.41,1.46.03,3.29.06,4.75.06s2.87-.05,6.51-.06c.15,0,.21.05.24.2Z"/>
    <path class="cls-2" d="M153.1,19.08c-.44,0-.91.03-1.35.06.08-1.05.2-2.57.2-5.54,0-3.67-.11-4.37-.2-5.41.71.03,1.55.06,2.25.06.64,0,3.45-.06,4.45-.06,4.25,0,6.03.79,6.03,3.29,0,1.87-1,2.79-3.26,3.13.44.33.73.74,1,1.18.88,1.43,1.4,3.07,2.92,3.07.58,0,1.08-.11,1.61-.42l.09.18c-.62.41-1.47.73-2.7.73-5.03,0-3.39-4.57-6.54-4.57h-3.31c.03,2.2.12,3.43.2,4.36-.44-.03-.93-.06-1.37-.06ZM154.34,9.24c-.05.77-.09,1.75-.09,4.49h4.19c2.92,0,3.64-.88,3.64-2.25s-.73-2.25-3.64-2.25h-4.1Z"/>
    <path class="cls-2" d="M182.29,8.39l.3,1.38-.17.06c-.3-.49-1.26-.59-2.1-.59h-6.88c-.02,1.23-.09,2.49-.09,3.72h4.28c.68,0,2.38-.05,2.95-.18-.03.29-.03.49-.03.71s0,.43.03.71c-.56-.17-2.26-.2-2.95-.2h-4.28c0,1.37.08,2.72.09,4.08h6.33c1.53,0,2.37-.11,3.17-.97l.15.09-.8,1.67c-.12.24-.17.26-.46.26-3.51,0-5.22-.06-6.67-.06-1.35,0-3.04.03-4.4.06.08-1.05.21-2.57.21-5.54,0-3.67-.12-4.37-.21-5.41,1.38.03,3.11.06,4.49.06s3.04-.06,6.77-.06c.15,0,.21.05.24.2Z"/>
    <path class="cls-2" d="M198.87,10.3l-.18.06c-.94-1.08-2.64-1.58-4.89-1.58-2.96,0-3.99.94-3.99,1.84,0,2.93,9.69.32,9.69,5.22,0,3.23-4.14,3.61-6.41,3.61-2.47,0-3.93-.39-5.31-.96l-.49-1.9.18-.06c.79,1.29,3.25,1.97,5.62,1.97s4.46-.53,4.46-2.17c0-3.16-9.69-.47-9.69-5.19,0-3.07,4.02-3.31,5.62-3.31,2.25,0,3.96.4,5.06.9l.33,1.56Z"/>
    <path class="cls-2" d="M217.69,19.08c-.44,0-.91.03-1.35.06.06-.99.18-2.43.2-5.12h-9.43c0,2.69.12,4.13.21,5.12-.44-.03-.93-.06-1.37-.06s-.91.03-1.35.06c.08-1.05.2-2.57.2-5.54,0-3.67-.11-4.37-.2-5.41.44.03.91.06,1.35.06s.93-.03,1.37-.06c-.11.97-.2,1.67-.21,4.77h9.43c-.02-3.1-.11-3.8-.2-4.77.44.03.91.06,1.35.06s.93-.03,1.37-.06c-.11,1.03-.2,1.73-.2,5.41,0,2.98.11,4.49.2,5.54-.44-.03-.93-.06-1.37-.06Z"/>
    <path class="cls-2" d="M110.94,34.26c-.76,0-1.66.03-2.41.06.08-1.05.2-2.57.2-5.54,0-3.67-.11-4.37-.2-5.41.44.03.91.06,1.35.06s.93-.03,1.37-.06c-.11,1.03-.21,1.73-.21,5.41,0,2.16.06,3.52.11,4.49h6.45c.94,0,1.41-.05,2.25-.94l.18.08-.91,1.73c-.08.15-.15.18-.36.18-7.53,0-7.44-.06-7.8-.06Z"/>
    <path class="cls-2" d="M133.05,24.03c2.14,3.69,3.81,6.54,6.36,10.29-.67-.05-1.08-.06-1.49-.06s-.83.02-1.5.06c-.52-1.03-1.05-2.05-1.61-3.08h-7.86c-.65,1.08-1.26,2.13-1.79,3.08-.2-.03-.58-.06-.94-.06s-.73.03-.93.06c2.22-2.99,5.09-7.18,7.15-10.37-.24-.26-.61-.33-1.27-.41v-.17c.44,0,1.12.06,1.56.06s.99-.06,1.25-.06c.58,0,.83.06,1.08.65ZM131.02,24.85c-1.05,1.59-2.26,3.48-3.42,5.33h6.62c-.99-1.75-2.05-3.51-3.2-5.33Z"/>
    <path class="cls-2" d="M144.38,23.07c.87.62,4.31,3.23,7.39,5.21,1.75,1.08,3.16,2.08,4.24,2.78.03-1.32.08-2.46.08-3.69s-.05-2.43-.15-3.99c.2.05.47.06.76.06.27,0,.56-.02.76-.06-.15,1.88-.23,3.86-.23,5.92,0,1.72.06,3.51.15,5.37h-.18c-.87-.62-3.89-2.88-6.36-4.49-2.17-1.32-3.98-2.6-5.27-3.43-.02.85-.03,1.72-.03,2.61,0,1.61.05,3.26.17,4.96-.21-.03-.49-.06-.76-.06s-.55.03-.76.06c.11-1.26.15-2.9.15-4.63,0-2.28-.08-4.71-.18-6.67h.21l.02.05Z"/>
    <path class="cls-2" d="M163.35,28.78c0-3.67-.09-4.27-.14-5.39.9.02,2.22.06,3.13.06,1.09,0,2.03-.08,4.22-.08,5.28,0,7.77,2.4,7.77,5.44s-2.49,5.51-7.77,5.51c-2.34,0-3.19-.06-4.13-.06s-2.29.03-3.22.06c.06-1.12.14-2.57.14-5.54ZM175.76,28.81c0-2.49-1.52-4.36-5.19-4.36-1.44,0-3.43.03-4.87.09-.03.96-.05,1.79-.05,4.24,0,2.08.03,3.31.08,4.37,1.43.05,3.4.09,4.84.09,3.67,0,5.19-1.9,5.19-4.43Z"/>
  </g>
  <path class="cls-1" d="M37.11,24.1c0,3.62-2.94,6.56-6.56,6.56h-.05c-3.02-.02-5.58-2.08-6.31-4.93-.13-.51.19-1.04.71-1.15h.04c.49-.11.97.19,1.1.68.52,2.01,2.35,3.48,4.5,3.48,2.57,0,4.65-2.09,4.65-4.65,0-2.03-1.32-3.8-3.19-4.42-.48-.16-.75-.67-.61-1.16h0c.15-.53.71-.82,1.23-.64,2.46.83,4.28,3.11,4.47,5.73.01.17.02.33.02.48ZM28.46,32.75c-.49-.11-.97.2-1.1.69-.52,2.01-2.35,3.48-4.5,3.48s-3.98-1.47-4.5-3.48c-.13-.49-.61-.79-1.1-.69h-.05c-.52.12-.84.64-.7,1.15.73,2.86,3.31,4.92,6.35,4.92s5.62-2.06,6.36-4.92c.13-.51-.19-1.03-.7-1.14h-.05ZM20.41,32.26c0,1.35,1.1,2.45,2.45,2.45s2.45-1.1,2.45-2.45-1.1-2.45-2.45-2.45-2.45,1.1-2.45,2.45ZM20.77,24.58c-.49-.1-.97.2-1.1.69-.52,2.01-2.35,3.48-4.5,3.48-2.57,0-4.65-2.09-4.65-4.65,0-2.03,1.32-3.8,3.19-4.42.48-.16.75-.67.61-1.16h0c-.15-.53-.71-.82-1.23-.64-2.46.83-4.28,3.11-4.47,5.73-.01.17-.02.33-.02.48,0,3.62,2.94,6.56,6.56,6.56h.05c3.02-.02,5.58-2.08,6.31-4.93.13-.51-.19-1.04-.71-1.15h-.04ZM28.1,24.1c0,1.35,1.1,2.45,2.45,2.45s2.45-1.1,2.45-2.45c0-.55-.18-1.06-.51-1.5h-.01s-.01-.02-.01-.02c-.19-.17-.38-.34-.55-.51h-.01s-.01-.02-.01-.02c-.4-.26-.87-.4-1.34-.4-1.35,0-2.45,1.1-2.45,2.45ZM12.71,24.1c0,1.35,1.1,2.45,2.45,2.45s2.45-1.1,2.45-2.45c0-.61-.23-1.19-.64-1.65h0s-.38-.34-.38-.34h0c-.42-.31-.91-.46-1.43-.46-1.35,0-2.45,1.1-2.45,2.45ZM13.87,14.27c-.26-1.04-.79-2.02-1.51-2.82h0s-.01-.02-.01-.02c-.25-.19-.47-.41-.68-.64h0s-.01-.02-.01-.02c-1.16-.94-2.62-1.46-4.11-1.46h-.01c-3.62,0-6.56,2.94-6.56,6.56,0,2.88,1.85,5.37,4.52,6.24.51.17,1.06-.13,1.21-.65h0c.14-.49-.13-1.01-.62-1.17-1.95-.64-3.3-2.52-3.19-4.66.13-2.46,2.18-4.41,4.64-4.41,2.18,0,4.01,1.49,4.52,3.52.12.49.62.8,1.12.7h0c.53-.11.86-.64.73-1.16ZM38.15,9.31h-.01c-1.49,0-2.95.52-4.11,1.46h-.01s0,.02,0,.02c-.2.24-.43.45-.68.64h-.01s0,.02,0,.02c-.73.8-1.25,1.77-1.51,2.82-.13.52.2,1.05.73,1.16h0c.5.1.99-.2,1.12-.7.51-2.03,2.34-3.52,4.52-3.52,2.46,0,4.52,1.95,4.64,4.41.11,2.14-1.24,4.02-3.19,4.66-.49.16-.76.68-.62,1.17h0c.15.52.69.82,1.21.65,2.67-.87,4.52-3.35,4.52-6.24,0-3.62-2.94-6.56-6.56-6.56ZM21.27,14.03h0c-.07.07-.14.14-.21.2h0s0,0,0,0c-.43.46-.67,1.05-.67,1.68s.23,1.2.64,1.65h0s0,.01,0,.01c.08.08.17.16.26.24h0s0,.01,0,.01c.43.35.98.54,1.53.54,1.35,0,2.45-1.1,2.45-2.45,0-.62-.23-1.21-.66-1.67h0s0-.01,0-.01c-.08-.07-.16-.14-.22-.21h0s0-.01,0-.01c-.44-.36-.99-.55-1.55-.55s-1.12.2-1.55.56h0ZM40.61,15.9c0-1.35-1.1-2.45-2.45-2.45-.53,0-1.03.17-1.46.48h0s0,.02,0,.02c-.13.13-.26.25-.39.37h0s0,.02,0,.02c-.37.44-.57,1-.57,1.57s.18,1.06.51,1.5h.01s.01.03.01.03c.19.16.37.33.54.5h.01s.01.02.01.02c.4.27.87.41,1.35.41,1.35,0,2.45-1.1,2.45-2.45ZM9.96,15.87c0-.53-.17-1.03-.48-1.46v-.02s-.03-.01-.03-.01c-.2-.17-.39-.35-.57-.54h-.01s-.02-.02-.02-.02c-.4-.26-.87-.4-1.34-.4-1.35,0-2.45,1.1-2.45,2.45s1.1,2.45,2.45,2.45,2.45-1.1,2.45-2.45ZM31.96,9.71h0c.12-.13.25-.25.39-.37h0s0-.02,0-.02c.37-.44.57-1,.57-1.58,0-1.35-1.1-2.45-2.45-2.45s-2.45,1.1-2.45,2.45c0,.62.23,1.22.66,1.67h0s0,.01,0,.01c.07.06.14.13.22.21h0s0,0,0,0c.44.36.99.56,1.55.56.53,0,1.03-.17,1.46-.48h.01ZM16.72,9.64h0c.08-.08.15-.15.23-.22h.01c.42-.47.66-1.06.66-1.68,0-1.35-1.1-2.45-2.45-2.45s-2.45,1.1-2.45,2.45c0,.53.17,1.03.48,1.46v.02s.03.01.03.01c.2.17.39.35.57.54h.01s.02.02.02.02c.4.26.86.4,1.34.4.56,0,1.11-.2,1.55-.55h0ZM36.91,6.06c-.75-2.84-3.32-4.88-6.34-4.88-3.62,0-6.56,2.94-6.56,6.56,0,.15,0,.3.01.44.11,1.6.8,3.11,1.95,4.24h0c1,.89,1.58,2.16,1.58,3.5,0,2.57-2.09,4.65-4.65,4.65h0s-.02,0-.04,0c-.01,0-.02,0-.04,0h0c-2.57,0-4.65-2.09-4.65-4.65,0-1.33.58-2.6,1.58-3.49h0c1.15-1.14,1.85-2.64,1.95-4.25,0-.15.01-.3.01-.44,0-3.62-2.94-6.56-6.56-6.56-3.02,0-5.59,2.04-6.34,4.88-.14.52.18,1.04.7,1.15h.05c.49.11.97-.19,1.1-.67.54-1.99,2.36-3.45,4.49-3.45,2.57,0,4.65,2.09,4.65,4.65,0,1.34-.58,2.61-1.59,3.5h0c-1.15,1.14-1.84,2.64-1.94,4.24,0,.15-.01.3-.01.44s0,.29.01.44c.1,1.55.76,3.02,1.84,4.13l.13.13c.08.08.16.15.24.23l.03.02.38.3c1.14.85,2.5,1.31,3.92,1.31h.05s.05,0,.05,0c1.42,0,2.77-.45,3.92-1.31l.38-.3.03-.02c.08-.08.16-.15.24-.23l.13-.13c1.08-1.11,1.74-2.58,1.84-4.13,0-.15.01-.29.01-.44s0-.3-.01-.44c-.11-1.6-.8-3.1-1.94-4.23h0c-1.01-.89-1.59-2.17-1.59-3.5,0-2.57,2.09-4.65,4.65-4.65,2.13,0,3.96,1.46,4.49,3.45.13.48.61.79,1.1.68h.05c.52-.12.84-.65.7-1.16Z"/>
</svg>