<?xml version="1.0" encoding="UTF-8"?>
<svg id="Livello_1" data-name="Livello 1" xmlns="http://www.w3.org/2000/svg" xmlns:xlink="http://www.w3.org/1999/xlink" viewBox="0 0 82 82">
  <defs>
    <style>
      .cls-1 {
        stroke: #000;
        stroke-width: .72px;
      }

      .cls-1, .cls-2 {
        fill: none;
        stroke-miterlimit: 10;
      }

      .cls-2 {
        stroke: url(#linear-gradient);
        stroke-width: 2px;
      }
    </style>
    <linearGradient id="linear-gradient" x1="41" y1="0" x2="41" y2="82" gradientUnits="userSpaceOnUse">
      <stop offset="0" stop-color="#922782"/>
      <stop offset="1" stop-color="#600655"/>
    </linearGradient>
  </defs>
  <path class="cls-2" d="M41,81C18.94,81,1,63.06,1,41S18.94,1,41,1s40,17.94,40,40-17.94,40-40,40Z"/>
  <g>
    <path class="cls-1" d="M50.04,48.84c1.48-1.43,2-1.76,3.26-2.52"/>
    <path class="cls-1" d="M56.29,51.6c.61-1.41,1.71-3.44,3.79-5.28"/>
    <path class="cls-1" d="M61.86,56.44c.03-2.6,2.81-8.56,3.94-10.12"/>
    <path class="cls-1" d="M61.58,34.13l1.26-10.36c.09-.71,1.17-.72,1.27,0l2.02,14.59c.1.72.29,1.78,0,2.1l-2.69,2.3-1.75-1.43"/>
    <path class="cls-1" d="M56.73,42.55l-2.42-2.9c-.29-.35-.07-1.47,0-2.24l1.78-19.56c.07-.76,1.27-.77,1.36,0l1.78,19.56c.07.77.25,1.86,0,2.24l-2.5,2.9h0Z"/>
    <polygon class="cls-1" points="51.11 41.03 25.68 41.02 28.67 35.19 35.97 35.19 48.25 35.19 51.11 41.03 51.11 41.03"/>
    <path class="cls-1" d="M42.21,46.83c7.84-.34,15.4-.75,23.81-.75"/>
    <line class="cls-1" x1="31.53" y1="34.6" x2="31.53" y2="32.97"/>
    <polygon class="cls-1" points="35.97 32.13 30.83 32.13 32.82 27.63 39.08 27.63 41.07 32.13 35.97 32.13 35.97 32.13"/>
    <line class="cls-1" x1="40.4" y1="33" x2="40.4" y2="34.78"/>
    <path class="cls-1" d="M15.54,46.3c7.04,0,12.32-.13,19.1,1.6,8.83,1.97,26.33,9.37,30.74,17.46"/>
    <path class="cls-1" d="M15.89,46.3c3.96,4.54,5.29,8.04,7.33,13.37,1.92,5,2.71,7.41,2.72,8.06"/>
    <path class="cls-1" d="M22.98,46.48c3.85,3.63,10.6,15.8,11.26,20.54"/>
    <path class="cls-1" d="M30.11,47.24c3.12,2.9,13.07,16.62,12.59,19.25"/>
    <path class="cls-1" d="M38.23,49c3.52,3.2,11.9,13.34,12.89,17.08"/>
    <path class="cls-1" d="M46.66,51.97c2.69,2.36,10.77,10.51,12.02,13.69"/>
    <line class="cls-1" x1="27.89" y1="41.09" x2="27.89" y2="43.83"/>
    <line class="cls-1" x1="56.7" y1="42.16" x2="56.7" y2="45.53"/>
    <line class="cls-1" x1="63.28" y1="43" x2="63.28" y2="45.95"/>
    <path class="cls-1" d="M17.79,42.07l-2.1-3c-.27-.39-.11-1.55,0-2.35l1.47-16.45c.11-.8,1.32-.81,1.43,0l1.96,16.45c.1.8.27,1.95,0,2.35l-2.76,3h0Z"/>
    <line class="cls-1" x1="17.87" y1="41.17" x2="17.87" y2="46.15"/>
    <line class="cls-1" x1="48.6" y1="41.91" x2="48.67" y2="43.55"/>
  </g>
</svg>