<?xml version="1.0" encoding="UTF-8"?>
<svg id="Livello_1" data-name="Livello 1" xmlns="http://www.w3.org/2000/svg" xmlns:xlink="http://www.w3.org/1999/xlink" viewBox="0 0 76.19 76.19">
  <defs>
    <style>
      .cls-1 {
        stroke: #000;
        stroke-width: .72px;
      }

      .cls-1, .cls-2 {
        fill: none;
        stroke-miterlimit: 10;
      }

      .cls-2 {
        stroke: url(#linear-gradient);
        stroke-width: 2px;
      }
    </style>
    <linearGradient id="linear-gradient" x1="0" y1="38.09" x2="76.19" y2="38.09" gradientUnits="userSpaceOnUse">
      <stop offset="0" stop-color="#922782"/>
      <stop offset="1" stop-color="#600655"/>
    </linearGradient>
  </defs>
  <circle class="cls-2" cx="38.09" cy="38.09" r="37.09"/>
  <path class="cls-1" d="M26.28,39.51c.88-.94,2.19-1.47,3.58-1.31.68.08,1.31.31,1.84.67,1.46-1.69,4.3-2.39,6.29-2.35.45-1.99.95-3.8,1.43-4.9,2.04-5.3,5.17-9.51,8.26-12.75M36.93,29.21c-1.51-2.25-2.46-5.95,1.63-10.53,3.29-3.68,9.4-1.84,14.99-6.18-1.52,4.98-.95,8.53-1.42,11.11-1.56,8.59-5.82,10.57-9.91,9.32M37.99,36.51c1.59.59,4.69,1.49,5.36,3.84.59-.1.15-.24,1.83-.05.77.09,2.07.72,3.15,1.66M41.8,50.07l9.21-4.33c5.46-3.97,7.38,1.06,4.95,2.29l-12.07,7.63-5.12,3.23c-3.62,2.29-8.4,2.32-9.74,1.52-7.64-1.97-9.84-3.84-16.5-2.99M9.32,43.83l7.89-3.21c2.02-.82,4.27-.61,5.12.02,1.43,1.06,2.85,2.11,4.28,3.17,5.94,4.4,6.42,3.3,13.41,3.72,1.55.09,2.57,2.59,0,3.58-6.53,2.98-10.56,1.65-16.51-1.4"/>
</svg>