<?xml version="1.0" encoding="UTF-8"?>
<svg id="Livello_1" data-name="Livello 1" xmlns="http://www.w3.org/2000/svg" xmlns:xlink="http://www.w3.org/1999/xlink" viewBox="0 0 82 82">
  <defs>
    <style>
      .cls-1 {
        stroke: #000;
        stroke-width: .72px;
      }

      .cls-1, .cls-2 {
        fill: none;
        stroke-miterlimit: 10;
      }

      .cls-2 {
        stroke: url(#linear-gradient);
        stroke-width: 2px;
      }
    </style>
    <linearGradient id="linear-gradient" x1="0" y1="41" x2="82" y2="41" gradientUnits="userSpaceOnUse">
      <stop offset="0" stop-color="#922782"/>
      <stop offset="1" stop-color="#600655"/>
    </linearGradient>
  </defs>
  <path class="cls-2" d="M41,81C18.94,81,1,63.06,1,41S18.94,1,41,1s40,17.94,40,40-17.94,40-40,40Z"/>
  <g>
    <path class="cls-1" d="M22.84,50.94c.39,0,.92-.33,1.61-.65,4.85-2.21,7.25,2.97,5.56,6.74-.54,1.21-1.18,2.4-2.03,3.42-2.5,2.98-7.74,2.98-10.28.03-.88-1.02-1.5-2.21-2.04-3.44-1.68-3.8.71-8.96,5.56-6.75.7.32,1.23.65,1.62.65h0Z"/>
    <path class="cls-1" d="M27.28,53.87c.04.66-.07,1.35-.35,1.98-.36.81-.79,1.61-1.36,2.29-.84,1-2.13,1.5-3.43,1.5"/>
    <path class="cls-1" d="M20.86,47.31c1.58.79,1.99,2.48,1.98,3.62"/>
    <path class="cls-1" d="M55.93,57.75l-.39,3.22c-.12,1.04-.91,1.92-2.01,1.92h-23.07"/>
    <line class="cls-1" x1="26.66" y1="46.81" x2="24.85" y2="32.55"/>
    <line class="cls-1" x1="59.15" y1="32.55" x2="57.36" y2="46.11"/>
    <path class="cls-1" d="M39.47,36.55c.77,0,1.39.6,1.39,1.33s-.62,1.33-1.39,1.33-1.39-.6-1.39-1.33.62-1.33,1.39-1.33h0Z"/>
    <path class="cls-1" d="M61.09,39.56c1.36,3.15,2.34,7.54,1.28,9.89"/>
    <path class="cls-1" d="M53.7,53.29c-5.08-.3-10.76-4.95-13.07-10.29-.69-1.6-1.04-3.17-1.07-4.63"/>
    <path class="cls-1" d="M53.92,51.09l6.54-2.9c.58-.26,1.29,0,1.57.57l.66,1.37c.28.57.03,1.26-.55,1.51l-6.54,2.9c-.58.26-1.29,0-1.57-.57l-.66-1.37c-.28-.57-.03-1.26.55-1.51h0Z"/>
    <path class="cls-1" d="M24.05,29.15c0-2.53,2.14-4.58,4.79-4.58s4.79,2.05,4.79,4.58"/>
    <path class="cls-1" d="M28.19,21.88c.5-.78,1.69-1.16,3.95-1.05.88.04,2.51-2.09,3.45-2.09,2.28,0,3.56,1.51,4.13,3.48"/>
    <path class="cls-1" d="M38.21,16.48c1.05-1.28,2.69-2.1,4.52-2.1.67,0,1.32.11,1.92.32"/>
    <path class="cls-1" d="M49.85,15.6c1.12.06,1.97,1.81,2.84,2.36,1.46.93,3.86,1.33,4.12,3.12.51,3.48-3.66,6.05-6.66,6.05s-5.44-2.33-5.44-5.2,1.25-6.53,5.14-6.33h0Z"/>
    <path class="cls-1" d="M59.3,23.35c.61.77.97,1.72.97,2.76,0,1.13-.43,2.16-1.13,2.96"/>
    <path class="cls-1" d="M55.18,16.53c-1.77.19-2.79,1.62-3.22,2.69"/>
    <path class="cls-1" d="M32.88,20.36c-1.27-1.19-1.16-2.92-.8-4.01"/>
    <path class="cls-1" d="M38.42,28.5c.16-1.86,1.51-3.51,3.51-4.04"/>
    <line class="cls-1" x1="22.14" y1="31.95" x2="62.33" y2="31.95"/>
  </g>
</svg>