<?xml version="1.0" encoding="UTF-8"?>
<svg id="Livello_1" data-name="Livello 1" xmlns="http://www.w3.org/2000/svg" xmlns:xlink="http://www.w3.org/1999/xlink" viewBox="0 0 76.19 76.19">
  <defs>
    <style>
      .cls-1 {
        stroke: #000;
        stroke-width: .72px;
      }

      .cls-1, .cls-2 {
        fill: none;
        stroke-miterlimit: 10;
      }

      .cls-2 {
        stroke: url(#linear-gradient);
        stroke-width: 2px;
      }
    </style>
    <linearGradient id="linear-gradient" x1="0" y1="38.09" x2="76.19" y2="38.09" gradientUnits="userSpaceOnUse">
      <stop offset="0" stop-color="#922782"/>
      <stop offset="1" stop-color="#600655"/>
    </linearGradient>
  </defs>
  <circle class="cls-2" cx="38.09" cy="38.09" r="37.09"/>
  <path class="cls-1" d="M34.8,59.7l.04-6.25c0-1.59,1.4-2.89,3.2-2.89h0c1.8,0,3.19,1.31,3.2,2.89l.04,6.25"/>
  <path class="cls-1" d="M37.91,29.69c1.27-.07,2.36.9,2.43,2.18.07,1.27-.9,2.36-2.18,2.43-1.27.07-2.36-.9-2.43-2.18-.07-1.27.9-2.36,2.18-2.43h0Z"/>
  <line class="cls-1" x1="23.03" y1="15.74" x2="20.42" y2="19.39"/>
  <line class="cls-1" x1="26.72" y1="18.57" x2="24.24" y2="22.04"/>
  <line class="cls-1" x1="29.91" y1="22.09" x2="28.06" y2="24.69"/>
  <line class="cls-1" x1="21.78" y1="46.99" x2="25.44" y2="49.6"/>
  <line class="cls-1" x1="24.61" y1="43.31" x2="28.09" y2="45.78"/>
  <line class="cls-1" x1="28.14" y1="40.12" x2="30.73" y2="41.97"/>
  <line class="cls-1" x1="53.04" y1="48.24" x2="55.65" y2="44.58"/>
  <line class="cls-1" x1="49.35" y1="45.41" x2="51.83" y2="41.94"/>
  <line class="cls-1" x1="46.16" y1="41.88" x2="48.01" y2="39.29"/>
  <line class="cls-1" x1="54.29" y1="16.99" x2="50.63" y2="14.37"/>
  <line class="cls-1" x1="51.46" y1="20.67" x2="47.98" y2="18.19"/>
  <line class="cls-1" x1="47.93" y1="23.86" x2="45.34" y2="22.01"/>
  <line class="cls-1" x1="27.69" y1="59.7" x2="27.95" y2="50.79"/>
  <line class="cls-1" x1="47.98" y1="52.74" x2="48.22" y2="59.7"/>
  <path class="cls-1" d="M37.8,29.2c1.56-.09,2.89,1.11,2.98,2.67.09,1.56-1.11,2.89-2.67,2.98-1.56.09-2.89-1.11-2.98-2.67-.09-1.56,1.11-2.89,2.67-2.98h0Z"/>
  <path class="cls-1" d="M35.41,30.19l-19.04-13.6,4.38-6.45c9.23,7.47,13.94,7.47,14.3,18.85"/>
  <path class="cls-1" d="M36.12,34.57l-13.6,19.04-6.45-4.38c7.47-9.23,7.47-13.94,18.85-14.3"/>
  <path class="cls-1" d="M40.5,33.86l19.04,13.6-4.38,6.45c-9.23-7.47-13.94-7.47-14.3-18.85"/>
  <path class="cls-1" d="M39.78,29.48l13.6-19.04,6.45,4.38c-7.47,9.23-7.47,13.94-18.85,14.3"/>
  <path class="cls-1" d="M27.92,32.95c.02-1.41.12-2.68.6-3.99"/>
  <path class="cls-1" d="M37.14,22.47c.27-.02.54-.03.81-.03.97,0,1.9.14,2.79.39"/>
  <path class="cls-1" d="M47.92,31.38c.18,1.42.17,2.91.13,4.34"/>
  <path class="cls-1" d="M16.07,62.99c4.88-1.41,12.27-2.34,20.62-2.42"/>
  <path class="cls-1" d="M36.69,60.57c.42,0,.84,0,1.26,0,8.86,0,16.76.95,21.88,2.43"/>
</svg>