<?xml version="1.0" encoding="UTF-8"?>
<svg id="Livello_1" data-name="Livello 1" xmlns="http://www.w3.org/2000/svg" viewBox="0 0 70 70">
  <defs>
    <style>
      .cls-1 {
        fill: #a9abad;
      }

      .cls-1, .cls-2 {
        stroke-width: 0px;
      }

      .cls-2 {
        fill: #fff;
      }
    </style>
  </defs>
  <circle class="cls-1" cx="35" cy="35" r="35"/>
  <g>
    <path class="cls-2" d="M34.07,34.49c0,1.58-.17,2.94-.51,4.09-.34,1.15-.8,2.11-1.39,2.86-.58.75-1.27,1.32-2.05,1.69-.78.37-1.62.55-2.51.55s-1.73-.18-2.51-.55c-.78-.37-1.46-.93-2.05-1.69-.58-.75-1.04-1.71-1.38-2.86-.33-1.15-.5-2.52-.5-4.09s.17-2.94.5-4.09c.33-1.15.79-2.11,1.38-2.86.58-.75,1.27-1.32,2.05-1.69.78-.37,1.62-.55,2.51-.55s1.73.18,2.51.55c.78.37,1.47.93,2.05,1.69.58.75,1.05,1.71,1.39,2.86.34,1.15.51,2.52.51,4.09ZM32.8,34.49c0-1.46-.14-2.7-.42-3.74-.28-1.03-.65-1.88-1.12-2.54-.47-.66-1.02-1.14-1.65-1.44s-1.29-.46-1.99-.46-1.36.15-1.98.46-1.18.79-1.65,1.44c-.47.66-.85,1.5-1.13,2.54-.28,1.03-.42,2.28-.42,3.74s.14,2.71.42,3.74.66,1.87,1.13,2.53c.48.66,1.03,1.14,1.65,1.44.63.3,1.29.45,1.98.45s1.36-.15,1.99-.45c.63-.3,1.18-.78,1.65-1.44.47-.66.85-1.5,1.12-2.53.28-1.03.42-2.28.42-3.74Z"/>
    <path class="cls-2" d="M47.64,42.35c.14,0,.24.04.32.12.08.08.11.18.11.31v.71h-11.61v-.43c0-.09.02-.19.07-.29.05-.1.11-.18.18-.25l6.14-6.22c.51-.52.98-1.02,1.41-1.5.43-.48.81-.97,1.13-1.46.32-.49.57-1,.74-1.51.18-.52.27-1.07.27-1.65,0-.66-.11-1.24-.33-1.72-.22-.49-.51-.89-.88-1.2-.36-.31-.79-.55-1.27-.7-.48-.15-.98-.23-1.5-.23-.57,0-1.09.09-1.57.26-.48.17-.9.42-1.27.72-.37.31-.67.68-.92,1.11-.24.43-.41.9-.5,1.41-.06.19-.14.31-.24.37-.1.06-.23.08-.4.06l-.62-.1c.11-.77.32-1.46.64-2.06.31-.6.71-1.11,1.2-1.53.48-.42,1.04-.73,1.68-.95.64-.22,1.32-.32,2.06-.32.69,0,1.34.1,1.96.3.62.2,1.17.5,1.65.9s.86.91,1.14,1.51c.28.61.42,1.32.42,2.13,0,.68-.1,1.31-.31,1.89s-.49,1.14-.85,1.67c-.36.53-.77,1.05-1.24,1.56-.47.5-.96,1.02-1.48,1.54l-5.63,5.75c.27-.07.55-.12.85-.15s.59-.05.88-.05h7.77Z"/>
  </g>
</svg>