<?xml version="1.0" encoding="UTF-8"?>
<svg id="Livello_1" data-name="Livello 1" xmlns="http://www.w3.org/2000/svg" viewBox="0 0 70 70">
  <defs>
    <style>
      .cls-1 {
        fill: #a9abad;
      }

      .cls-1, .cls-2 {
        stroke-width: 0px;
      }

      .cls-2 {
        fill: #fff;
      }
    </style>
  </defs>
  <circle class="cls-1" cx="35" cy="35" r="35"/>
  <g>
    <path class="cls-2" d="M34.07,34.49c0,1.58-.17,2.94-.51,4.09-.34,1.15-.8,2.11-1.39,2.86-.58.75-1.27,1.32-2.05,1.69-.78.37-1.62.55-2.51.55s-1.73-.18-2.51-.55c-.78-.37-1.46-.93-2.05-1.69-.58-.75-1.04-1.71-1.38-2.86-.33-1.15-.5-2.52-.5-4.09s.17-2.94.5-4.09c.33-1.15.79-2.11,1.38-2.86.58-.75,1.27-1.32,2.05-1.69.78-.37,1.62-.55,2.51-.55s1.73.18,2.51.55c.78.37,1.47.93,2.05,1.69.58.75,1.05,1.71,1.39,2.86.34,1.15.51,2.52.51,4.09ZM32.8,34.49c0-1.46-.14-2.7-.42-3.74-.28-1.03-.65-1.88-1.12-2.54-.47-.66-1.02-1.14-1.65-1.44s-1.29-.46-1.99-.46-1.36.15-1.98.46-1.18.79-1.65,1.44c-.47.66-.85,1.5-1.13,2.54-.28,1.03-.42,2.28-.42,3.74s.14,2.71.42,3.74.66,1.87,1.13,2.53c.48.66,1.03,1.14,1.65,1.44.63.3,1.29.45,1.98.45s1.36-.15,1.99-.45c.63-.3,1.18-.78,1.65-1.44.47-.66.85-1.5,1.12-2.53.28-1.03.42-2.28.42-3.74Z"/>
    <path class="cls-2" d="M48.94,37.36v.66c0,.09-.03.17-.08.22-.06.06-.14.08-.26.08h-2.95v5.16h-1.07v-5.16h-8.51c-.13,0-.23-.03-.29-.08-.07-.05-.11-.13-.14-.22l-.11-.6,9.04-11.95h1.08v11.89h3.29ZM44.58,37.36v-9.42c0-.14,0-.3.02-.47.01-.17.03-.34.04-.52l-7.78,10.41h7.72Z"/>
  </g>
</svg>