<?xml version="1.0" encoding="UTF-8"?>
<svg id="Livello_1" data-name="Livello 1" xmlns="http://www.w3.org/2000/svg" viewBox="0 0 70 70">
  <defs>
    <style>
      .cls-1 {
        fill: #a9abad;
      }

      .cls-1, .cls-2 {
        stroke-width: 0px;
      }

      .cls-2 {
        fill: #fff;
      }
    </style>
  </defs>
  <circle class="cls-1" cx="35" cy="35" r="35"/>
  <g>
    <path class="cls-2" d="M34.07,34.49c0,1.58-.17,2.94-.51,4.09-.34,1.15-.8,2.11-1.39,2.86-.58.75-1.27,1.32-2.05,1.69-.78.37-1.62.55-2.51.55s-1.73-.18-2.51-.55c-.78-.37-1.46-.93-2.05-1.69-.58-.75-1.04-1.71-1.38-2.86-.33-1.15-.5-2.52-.5-4.09s.17-2.94.5-4.09c.33-1.15.79-2.11,1.38-2.86.58-.75,1.27-1.32,2.05-1.69.78-.37,1.62-.55,2.51-.55s1.73.18,2.51.55c.78.37,1.47.93,2.05,1.69.58.75,1.05,1.71,1.39,2.86.34,1.15.51,2.52.51,4.09ZM32.8,34.49c0-1.46-.14-2.7-.42-3.74-.28-1.03-.65-1.88-1.12-2.54-.47-.66-1.02-1.14-1.65-1.44s-1.29-.46-1.99-.46-1.36.15-1.98.46-1.18.79-1.65,1.44c-.47.66-.85,1.5-1.13,2.54-.28,1.03-.42,2.28-.42,3.74s.14,2.71.42,3.74.66,1.87,1.13,2.53c.48.66,1.03,1.14,1.65,1.44.63.3,1.29.45,1.98.45s1.36-.15,1.99-.45c.63-.3,1.18-.78,1.65-1.44.47-.66.85-1.5,1.12-2.53.28-1.03.42-2.28.42-3.74Z"/>
    <path class="cls-2" d="M38.94,32.62c.57-.14,1.1-.25,1.61-.31.5-.06.99-.1,1.44-.1.94,0,1.77.13,2.48.4.71.27,1.31.64,1.79,1.12.48.48.84,1.05,1.08,1.71.24.66.36,1.38.36,2.16,0,.95-.16,1.8-.49,2.55-.33.75-.77,1.39-1.34,1.91-.57.53-1.23.93-1.98,1.21-.75.28-1.56.42-2.4.42-.49,0-.96-.04-1.42-.13-.45-.09-.88-.21-1.27-.36-.39-.15-.76-.32-1.09-.51s-.63-.39-.88-.6l.37-.5c.08-.13.19-.19.36-.19.11,0,.27.06.48.19.21.13.47.27.8.42.33.15.71.29,1.16.42.45.13.97.19,1.56.19.69,0,1.34-.11,1.95-.34s1.12-.55,1.56-.97c.44-.42.79-.95,1.04-1.57s.38-1.33.38-2.12c0-.64-.1-1.24-.29-1.78-.19-.54-.48-1.01-.86-1.39s-.87-.69-1.46-.9c-.59-.22-1.28-.32-2.08-.32-.48,0-1,.04-1.54.11-.54.08-1.12.2-1.73.37l-.78-.24,1.4-7.97h8.1v.52c0,.17-.06.31-.17.43-.11.11-.29.17-.54.17h-6.51l-1.07,6Z"/>
  </g>
</svg>